<?xml version="1.0" encoding="utf-8"?>
<!-- Generator: Adobe Illustrator 19.2.1, SVG Export Plug-In . SVG Version: 6.00 Build 0)  -->
<svg version="1.1" id="Слой_1" xmlns="http://www.w3.org/2000/svg" xmlns:xlink="http://www.w3.org/1999/xlink" x="0px" y="0px"
	 viewBox="0 0 40 40" style="enable-background:new 0 0 40 40;" xml:space="preserve">
<style type="text/css">
	.st0{fill:#F6A219;}
</style>
<g>
	<g>
		<path class="st0" d="M20,2l0.3-0.9L20,0.9l-0.3,0.1L20,2z M34.9,7.1h1V6.4l-0.7-0.2L34.9,7.1z M5.1,7.1L4.7,6.2L4.1,6.4v0.7H5.1z
			 M5.1,7.6l-1,0L5.1,7.6z M8.2,29L9,28.5l0,0l0,0L8.2,29z M31.8,29L31,28.4l0,0l0,0L31.8,29z M34.9,7.6l1,0l0,0L34.9,7.6z
			 M19.7,2.9l14.9,5.1l0.7-1.9L20.3,1.1L19.7,2.9z M5.4,8.1l14.9-5.1l-0.7-1.9L4.7,6.2L5.4,8.1z M6.1,7.6c0-0.2,0-0.4,0-0.5h-2
			c0,0,0,0.2,0,0.4L6.1,7.6z M9,28.4c-0.8-1.1-1.4-2.8-1.9-4.8c-0.5-2-0.7-4.2-0.9-6.3C5.9,13,6,9,6.1,7.6l-2-0.1
			c0,1.4-0.2,5.5,0.2,9.9c0.2,2.2,0.5,4.5,0.9,6.6c0.5,2.1,1.2,4,2.2,5.5L9,28.4z M20,37c0,0-0.1,0-0.5-0.2
			c-0.3-0.1-0.8-0.4-1.2-0.6c-1-0.6-2.2-1.3-3.4-2.2c-2.5-1.8-4.9-4-5.9-5.5l-1.7,1.1c1.2,1.8,3.9,4.2,6.3,6
			c1.3,0.9,2.5,1.8,3.6,2.4c0.5,0.3,1,0.6,1.5,0.7c0.4,0.2,0.9,0.3,1.3,0.3V37z M31,28.5c-1,1.5-3.4,3.7-5.9,5.5
			c-1.2,0.9-2.4,1.7-3.4,2.2c-0.5,0.3-0.9,0.5-1.2,0.6C20.1,37,20,37,20,37v2c0.4,0,0.9-0.2,1.3-0.3c0.4-0.2,0.9-0.4,1.5-0.7
			c1.1-0.6,2.3-1.4,3.6-2.4c2.5-1.8,5.2-4.2,6.3-6L31,28.5z M33.9,7.6c0,1.3,0.2,5.4-0.2,9.7c-0.2,2.2-0.4,4.4-0.9,6.3
			c-0.5,2-1.1,3.7-1.9,4.8l1.6,1.2c1-1.4,1.7-3.4,2.2-5.5c0.5-2.1,0.8-4.4,0.9-6.6c0.3-4.4,0.2-8.5,0.2-9.9L33.9,7.6z M33.9,7.1
			c0,0.1,0,0.3,0,0.5l2-0.1c0-0.2,0-0.4,0-0.4H33.9z M28,18.5c0,4.4-3.6,8-8,8v2c5.5,0,10-4.5,10-10H28z M20,10.5c4.4,0,8,3.6,8,8h2
			c0-5.5-4.5-10-10-10V10.5z M12,18.5c0-4.4,3.6-8,8-8v-2c-5.5,0-10,4.5-10,10H12z M20,26.5c-4.4,0-8-3.6-8-8h-2c0,5.5,4.5,10,10,10
			V26.5z"/>
	</g>
	<g>
		<polygon class="st0" points="19.2,22.9 14.9,19.3 16.1,17.7 19,20.1 23.8,14.8 25.2,16.2 		"/>
	</g>
</g>
</svg>
