<?xml version="1.0" encoding="utf-8"?>
<!-- Generator: Adobe Illustrator 19.2.1, SVG Export Plug-In . SVG Version: 6.00 Build 0)  -->
<svg version="1.1" id="Слой_1" xmlns="http://www.w3.org/2000/svg" xmlns:xlink="http://www.w3.org/1999/xlink" x="0px" y="0px"
	 viewBox="0 0 40 40" style="enable-background:new 0 0 40 40;" xml:space="preserve">
<style type="text/css">
	.st0{fill:#F6A219;}
</style>
<g>
	<g>
		<path class="st0" d="M33.6,20.4v-5.6h-2v5.6H33.6z M33.6,14.8c0-1.4-1.2-2.5-2.5-2.5v2c0.3,0,0.5,0.2,0.5,0.5H33.6z M31.1,12.3
			H7.2v2h23.9V12.3z M7.2,12.3c-1.4,0-2.5,1.1-2.5,2.5h2c0-0.2,0.2-0.5,0.5-0.5V12.3z M4.7,14.8v19.7h2V14.8H4.7z M4.7,34.5
			c0,1.4,1.2,2.5,2.5,2.5v-2c-0.3,0-0.5-0.2-0.5-0.5H4.7z M7.2,37h23.9v-2H7.2V37z M31.1,37c1.4,0,2.5-1.1,2.5-2.5h-2
			c0,0.2-0.2,0.5-0.5,0.5V37z M33.6,34.5v-5.6h-2v5.6H33.6z M33.6,28.9v-8.5h-2v8.5H33.6z"/>
	</g>
	<g>
		<path class="st0" d="M24,11c-2.8,0-5-2.2-5-5s2.2-5,5-5s5,2.2,5,5S26.8,11,24,11z M24,3c-1.7,0-3,1.3-3,3s1.3,3,3,3s3-1.3,3-3
			S25.7,3,24,3z"/>
	</g>
	<g>
		<path class="st0" d="M19,12.1l-2-0.3c0-0.1,0-0.2,0-0.3c0-1.4-1.3-2.6-3-2.6s-3,1.1-3,2.6c0,0.1,0,0.2,0,0.3l-2,0.3
			c0-0.2,0-0.4,0-0.6C9,9,11.2,7,14,7s5,2,5,4.6C19,11.8,19,11.9,19,12.1z"/>
	</g>
	<g>
		<path class="st0" d="M33,28H22.2C21,28,20,27.1,20,26.1v-3.1c0-1.1,1-1.9,2.2-1.9H33v2H22.2c-0.1,0-0.2,0-0.2,0V26
			c0,0,0.1,0,0.2,0H33V28z"/>
	</g>
</g>
</svg>
