<?xml version="1.0" encoding="utf-8"?>
<!-- Generator: Adobe Illustrator 19.2.1, SVG Export Plug-In . SVG Version: 6.00 Build 0)  -->
<svg version="1.1" id="Слой_1" xmlns="http://www.w3.org/2000/svg" xmlns:xlink="http://www.w3.org/1999/xlink" x="0px" y="0px"
	 viewBox="0 0 40 40" style="enable-background:new 0 0 40 40;" xml:space="preserve">
<style type="text/css">
	.st0{fill:#F6A219;}
</style>
<g>
	<g>
		<path class="st0" d="M33.7,16.3l-1-0.2l-0.1,0.5l0.3,0.4L33.7,16.3z M37,20l0.7,0.7l0.6-0.7l-0.6-0.7L37,20z M34.7,11.5l1,0.2
			l0.2-0.9L35,10.5L34.7,11.5z M30,10l-1,0.3l0.2,0.5l0.5,0.2L30,10z M28.5,5.3l1-0.3l-0.3-0.9l-0.9,0.2L28.5,5.3z M23.7,6.3L23,7.1
			l0.4,0.3l0.5-0.1L23.7,6.3z M20,3l0.7-0.7L20,1.7l-0.7,0.6L20,3z M16.3,6.3l-0.2,1l0.5,0.1L17,7.1L16.3,6.3z M11.5,5.3l0.2-1
			l-0.9-0.2L10.5,5L11.5,5.3z M10,10l0.3,1l0.5-0.2l0.2-0.5L10,10z M5.3,11.5l-0.3-1l-0.9,0.3l0.2,0.9L5.3,11.5z M6.3,16.3L7.1,17
			l0.3-0.4l-0.1-0.5L6.3,16.3z M3,20l-0.7-0.7L1.7,20l0.6,0.7L3,20z M6.3,23.7l1,0.2l0.1-0.5L7.1,23L6.3,23.7z M5.3,28.5l-1-0.2
			l-0.2,0.9L5,29.5L5.3,28.5z M10,30l1-0.3l-0.2-0.5l-0.5-0.2L10,30z M11.5,34.7l-1,0.3l0.3,0.9l0.9-0.2L11.5,34.7z M16.3,33.7
			l0.7-0.7l-0.4-0.3l-0.5,0.1L16.3,33.7z M20,37l-0.7,0.7l0.7,0.6l0.7-0.6L20,37z M23.7,33.7l0.2-1l-0.5-0.1L23,32.9L23.7,33.7z
			 M28.5,34.7l-0.2,1l0.9,0.2l0.3-0.9L28.5,34.7z M30,30l-0.3-1l-0.5,0.2l-0.2,0.5L30,30z M34.7,28.5l0.3,1l0.9-0.3l-0.2-0.9
			L34.7,28.5z M33.7,23.7L32.9,23l-0.3,0.4l0.1,0.5L33.7,23.7z M32.9,17l3.3,3.7l1.5-1.3l-3.3-3.7L32.9,17z M33.7,11.3l-1,4.8l2,0.4
			l1-4.8L33.7,11.3z M29.7,10.9l4.7,1.5l0.6-1.9L30.3,9L29.7,10.9z M27.5,5.6l1.5,4.7L31,9.7L29.5,5L27.5,5.6z M23.9,7.3l4.8-1
			l-0.4-2l-4.8,1L23.9,7.3z M19.3,3.7L23,7.1l1.3-1.5l-3.7-3.3L19.3,3.7z M17,7.1l3.7-3.3l-1.3-1.5l-3.7,3.3L17,7.1z M11.3,6.3
			l4.8,1l0.4-2l-4.8-1L11.3,6.3z M10.9,10.3l1.5-4.7L10.5,5L9,9.7L10.9,10.3z M5.6,12.5l4.7-1.5L9.7,9L5,10.5L5.6,12.5z M7.3,16.1
			l-1-4.8l-2,0.4l1,4.8L7.3,16.1z M3.7,20.7L7.1,17l-1.5-1.3l-3.3,3.7L3.7,20.7z M7.1,23l-3.3-3.7l-1.5,1.3l3.3,3.7L7.1,23z
			 M6.3,28.7l1-4.8l-2-0.4l-1,4.8L6.3,28.7z M10.3,29.1l-4.7-1.5L5,29.5L9.7,31L10.3,29.1z M12.5,34.4l-1.5-4.7L9,30.3l1.5,4.7
			L12.5,34.4z M16.1,32.7l-4.8,1l0.4,2l4.8-1L16.1,32.7z M20.7,36.3L17,32.9l-1.3,1.5l3.7,3.3L20.7,36.3z M23,32.9l-3.7,3.3l1.3,1.5
			l3.7-3.3L23,32.9z M28.7,33.7l-4.8-1l-0.4,2l4.8,1L28.7,33.7z M29.1,29.7l-1.5,4.7l1.9,0.6l1.5-4.7L29.1,29.7z M34.4,27.5
			l-4.7,1.5l0.6,1.9l4.7-1.5L34.4,27.5z M32.7,23.9l1,4.8l2-0.4l-1-4.8L32.7,23.9z M36.3,19.3L32.9,23l1.5,1.3l3.3-3.7L36.3,19.3z
			 M15.8,19.6c2.1,0,3.8-1.7,3.8-3.8h-2c0,1-0.8,1.8-1.8,1.8V19.6z M11.9,15.7c0,2.1,1.7,3.8,3.8,3.8v-2c-1,0-1.8-0.8-1.8-1.8H11.9z
			 M15.8,11.9c-2.1,0-3.8,1.7-3.8,3.8h2c0-1,0.8-1.8,1.8-1.8V11.9z M19.6,15.7c0-2.1-1.7-3.8-3.8-3.8v2c1,0,1.8,0.8,1.8,1.8H19.6z
			 M26.1,24.2c0,1-0.8,1.8-1.8,1.8v2c2.1,0,3.8-1.7,3.8-3.8H26.1z M24.3,22.4c1,0,1.8,0.8,1.8,1.8h2c0-2.1-1.7-3.8-3.8-3.8V22.4z
			 M22.4,24.2c0-1,0.8-1.8,1.8-1.8v-2c-2.1,0-3.8,1.7-3.8,3.8H22.4z M24.3,26.1c-1,0-1.8-0.8-1.8-1.8h-2c0,2.1,1.7,3.8,3.8,3.8V26.1
			z"/>
	</g>
	<g>
		<rect x="12" y="19.2" transform="matrix(0.7068 -0.7074 0.7074 0.7068 -8.2841 20.0119)" class="st0" width="16" height="1.7"/>
	</g>
</g>
</svg>
