<?xml version="1.0" encoding="utf-8"?>
<!-- Generator: Adobe Illustrator 19.2.1, SVG Export Plug-In . SVG Version: 6.00 Build 0)  -->
<svg version="1.1" id="Слой_1" xmlns="http://www.w3.org/2000/svg" xmlns:xlink="http://www.w3.org/1999/xlink" x="0px" y="0px"
	 viewBox="0 0 160 160" style="enable-background:new 0 0 160 160;" xml:space="preserve">
<style type="text/css">
	.st0{fill:#FFFFFF;}
</style>
<g>
	<path class="st0" d="M134.5,28v4V28z M70.7,28v-4V28z M57.4,45v4h4v-4H57.4z M31,51.7l-3.5-2l0,0L31,51.7z M12.2,84.5l-3.5-2
		l-0.5,0.9l0,1.1H12.2z M12.2,118.7h4H12.2z M43.3,150.7c10,0,18.1-8.1,18.1-18.1h-8c0,5.6-4.5,10.1-10.1,10.1V150.7z M25.1,132.5
		c0,10,8.1,18.1,18.1,18.1v-8c-5.6,0-10.1-4.5-10.1-10.1H25.1z M43.3,114.4c-10,0-18.1,8.1-18.1,18.1h8c0-5.6,4.5-10.1,10.1-10.1
		V114.4z M61.4,132.5c0-10-8.1-18.1-18.1-18.1v8c5.6,0,10.1,4.5,10.1,10.1H61.4z M132.5,132.5c0,5.6-4.5,10.1-10.1,10.1v8
		c10,0,18.1-8.1,18.1-18.1H132.5z M122.4,122.4c5.6,0,10.1,4.5,10.1,10.1h8c0-10-8.1-18.1-18.1-18.1V122.4z M112.3,132.5
		c0-5.6,4.5-10.1,10.1-10.1v-8c-10,0-18.1,8.1-18.1,18.1H112.3z M122.4,142.7c-5.6,0-10.1-4.5-10.1-10.1h-8c0,10,8.1,18.1,18.1,18.1
		V142.7z M25.5,136.1H28v-8h-2.5V136.1z M57.4,136.1H108v-8H57.4V136.1z M151.8,120.3V41.3h-8v78.9H151.8z M134.5,24H70.7v8h63.7V24
		z M53.4,41.3V45h8v-3.6H53.4z M57.4,41H42.5v8h14.9V41z M27.5,49.7L8.7,82.5l6.9,4l18.8-32.8L27.5,49.7z M8.2,84.5l0,34.2h8l0-34.2
		L8.2,84.5z M42.5,41c-6.2,0-12,3.3-15,8.7l6.9,4c1.7-2.9,4.8-4.7,8.1-4.7V41z M70.7,24c-9.6,0-17.3,7.8-17.3,17.3h8
		c0-5.2,4.2-9.3,9.3-9.3V24z M151.8,41.3c0-9.6-7.8-17.3-17.3-17.3v8c5.2,0,9.3,4.2,9.3,9.3H151.8z M136.7,136
		c8.4-0.4,15.1-7.3,15.1-15.8h-8c0,4.2-3.3,7.6-7.5,7.8L136.7,136z M25.5,128.1c-5.2,0-9.3-4.2-9.3-9.3h-8c0,9.6,7.8,17.3,17.3,17.3
		V128.1z"/>
	<polygon class="st0" points="61.4,88.5 12,88.5 12,80.5 53.4,80.5 53.4,60.3 28,60.3 28,52.3 61.4,52.3 	"/>
</g>
</svg>
