<?xml version="1.0" encoding="utf-8"?>
<!-- Generator: Adobe Illustrator 19.2.1, SVG Export Plug-In . SVG Version: 6.00 Build 0)  -->
<svg version="1.1" id="Слой_1" xmlns="http://www.w3.org/2000/svg" xmlns:xlink="http://www.w3.org/1999/xlink" x="0px" y="0px"
	 viewBox="0 0 160 160" style="enable-background:new 0 0 160 160;" xml:space="preserve">
<style type="text/css">
	.st0{fill:#FFFFFF;}
</style>
<g>
	<path class="st0" d="M134.5,81.7V59.2h-8v22.5H134.5z M134.5,59.2c0-5.6-4.6-9.8-10.1-9.8v8c1.3,0,2.1,1,2.1,1.8H134.5z
		 M124.5,49.3H28.9v8h95.6V49.3z M28.9,49.3c-5.4,0-10.1,4.3-10.1,9.8h8c0-0.9,0.8-1.8,2.1-1.8V49.3z M18.8,59.2v79h8v-79H18.8z
		 M18.8,138.2c0,5.6,4.6,9.8,10.1,9.8v-8c-1.3,0-2.1-1-2.1-1.8H18.8z M28.9,148h95.6v-8H28.9V148z M124.5,148
		c5.4,0,10.1-4.3,10.1-9.8h-8c0,0.9-0.8,1.8-2.1,1.8V148z M134.5,138.2v-22.5h-8v22.5H134.5z M134.5,115.7v-34h-8v34H134.5z"/>
	<path class="st0" d="M96,44c-11,0-20-9-20-20S85,4,96,4s20,9,20,20S107,44,96,44z M96,12c-6.6,0-12,5.4-12,12s5.4,12,12,12
		s12-5.4,12-12S102.6,12,96,12z"/>
	<path class="st0" d="M36.2,48.6C36.1,47.8,36,47,36,46.2c0-10,9-18.2,20-18.2s20,8.2,20,18.2c0,0.8-0.1,1.5-0.2,2.3l-7.9-1.1
		C68,47,68,46.6,68,46.2C68,40.6,62.6,36,56,36s-12,4.6-12,10.2c0,0.4,0,0.8,0.1,1.2L36.2,48.6z"/>
	<path class="st0" d="M132,112H88.8c-4.9,0-8.8-3.5-8.8-7.8V91.8c0-4.3,4-7.8,8.8-7.8H132v8H88.8c-0.4,0-0.7,0.1-0.8,0.2v11.6
		c0.2,0.1,0.4,0.2,0.8,0.2H132V112z"/>
</g>
</svg>
