<?xml version="1.0" encoding="utf-8"?>
<!-- Generator: Adobe Illustrator 19.2.1, SVG Export Plug-In . SVG Version: 6.00 Build 0)  -->
<svg version="1.1" id="Слой_1" xmlns="http://www.w3.org/2000/svg" xmlns:xlink="http://www.w3.org/1999/xlink" x="0px" y="0px"
	 viewBox="0 0 16 16" style="enable-background:new 0 0 16 16;" xml:space="preserve">
<style type="text/css">
	.st0{fill:#262833;}
</style>
<g>
	<path class="st0" d="M13,14c-0.3,0-0.5-0.1-0.7-0.3L8,9.4l-4.3,4.3c-0.4,0.4-1,0.4-1.4,0s-0.4-1,0-1.4L6.6,8L2.3,3.7
		c-0.4-0.4-0.4-1,0-1.4s1-0.4,1.4,0L8,6.6l4.3-4.3c0.4-0.4,1-0.4,1.4,0s0.4,1,0,1.4L9.4,8l4.3,4.3c0.4,0.4,0.4,1,0,1.4
		C13.5,13.9,13.3,14,13,14z"/>
</g>
</svg>
