<?xml version="1.0" encoding="utf-8"?>
<!-- Generator: Adobe Illustrator 19.2.1, SVG Export Plug-In . SVG Version: 6.00 Build 0)  -->
<svg version="1.1" id="Слой_1" xmlns="http://www.w3.org/2000/svg" xmlns:xlink="http://www.w3.org/1999/xlink" x="0px" y="0px"
	 viewBox="0 0 123 81" style="enable-background:new 0 0 123 81;" xml:space="preserve">
<style type="text/css">
	.st0{fill:#F6A219;}
</style>
<g>
	<path class="st0" d="M51.3,80.6c-0.8,0-1.6-0.1-2.4-0.4c-1.8-0.6-3.3-1.9-4.2-3.7c-0.4-0.7-0.6-1.4-0.7-2.2l-1.3,0.6
		c-1,0.5-2.1,0.7-3.2,0.7c-2.8,0-5.3-1.6-6.5-4.1c-0.5-1-0.7-2.1-0.7-3.2c-2.7-0.1-5.1-1.6-6.3-4.1c-1.2-2.4-0.9-5.3,0.6-7.4
		c-0.9-0.7-1.6-1.5-2-2.5c-0.9-1.7-1-3.7-0.3-5.5c0.6-1.8,1.9-3.3,3.7-4.2l10.8-5.3l0.9,1.8l-10.8,5.3c-1.3,0.6-2.2,1.7-2.7,3
		c-0.5,1.3-0.4,2.8,0.2,4c0.4,0.8,1,1.5,1.8,2l19.9-9.8l0.9,1.8l-20.3,9.9c-1.5,1.6-1.9,4-0.9,5.9c1,2,3.1,3.1,5.3,2.9l22.6-11.1
		l0.9,1.8L34.4,68c-0.1,0.9,0.1,1.8,0.5,2.7c0.9,1.8,2.7,2.9,4.7,2.9c0.8,0,1.6-0.2,2.3-0.5l2.7-1.3l0.4,0.9l-0.4-0.9l23.3-11.4
		l0.9,1.8L46,73.3c0,0.8,0.2,1.6,0.5,2.3c0.6,1.3,1.7,2.2,3,2.7c1.4,0.5,2.8,0.4,4-0.3L82,64.2c6.1-3,11.8-6.9,16.9-11.6l5.9-5.4
		L85.2,11.1c-0.6-1.3-0.1-2.7,1.1-3.3l14.8-7.3c0.6-0.3,1.3-0.3,1.9-0.1c0.6,0.2,1.1,0.6,1.4,1.2l17.8,36.2c0.6,1.3,0.1,2.7-1.1,3.3
		l-14.5,7.1l-6.3,5.8c-5.2,4.8-11.1,8.8-17.4,11.9L54.5,79.8C53.5,80.3,52.4,80.6,51.3,80.6z M102.2,2.2c-0.1,0-0.1,0-0.2,0
		L87.2,9.6c-0.2,0.1-0.3,0.4-0.2,0.7l19.5,35.9l13.8-6.7c0.2-0.1,0.3-0.4,0.2-0.7L102.7,2.5c-0.1-0.1-0.1-0.2-0.3-0.2
		C102.4,2.3,102.3,2.2,102.2,2.2z M18.1,48.6c-0.3,0-0.6-0.1-0.9-0.2L1.7,43c-1.3-0.5-2-1.9-1.5-3.2L13.2,1.7
		c0.2-0.6,0.6-1.1,1.2-1.4c0.6-0.3,1.3-0.3,1.9-0.1L32,5.4c0.2,0.1,0.3,0.2,0.5,0.2L35,6.6c1.9,0.7,4.1,0.6,5.9-0.3l1.5-0.7
		c3-1.4,6.5-1.7,9.6-0.6l30.5,10.5c1,0.3,1.7,1.3,1.7,2.4c-0.1,1.9-0.8,6.3-4.3,8.7c-2.5,1.7-5.8,2-9.7,0.6l-10.5-3.6
		c-1.1,2.7-3.8,7.5-8.9,10.2c-4.7,2.6-10.5,2.7-17,0.5l0.6-1.9c5.9,2,11.1,1.9,15.4-0.4c5.1-2.8,7.5-8,8.3-10.1l0.3-0.9l12.3,4.2
		c3.2,1.1,5.9,1,7.9-0.4c2.9-2,3.3-5.9,3.4-7.1l0-0.1c0-0.1-0.1-0.3-0.3-0.4L51.4,6.8c-2.6-0.9-5.6-0.7-8.1,0.5L41.8,8
		c-2.3,1.1-5.1,1.3-7.5,0.4L34,8.3L20.4,46.9c-0.2,0.6-0.6,1.1-1.2,1.4C18.9,48.5,18.5,48.6,18.1,48.6z M15.6,2c-0.1,0-0.1,0-0.2,0
		c-0.1,0.1-0.2,0.2-0.2,0.3L2,40.5c-0.1,0.2,0.1,0.5,0.3,0.6l15.6,5.4c0.1,0,0.1,0,0.2,0c0.1,0,0.1,0,0.2,0c0.1-0.1,0.2-0.2,0.2-0.3
		L32.1,7.7l-0.6-0.2c-0.1,0-0.1-0.1-0.2-0.1L15.7,2C15.7,2,15.6,2,15.6,2z"/>
</g>
</svg>
