<?xml version="1.0" encoding="utf-8"?>
<!-- Generator: Adobe Illustrator 19.2.1, SVG Export Plug-In . SVG Version: 6.00 Build 0)  -->
<svg version="1.1" id="Слой_1" xmlns="http://www.w3.org/2000/svg" xmlns:xlink="http://www.w3.org/1999/xlink" x="0px" y="0px"
	 viewBox="0 0 82 76" style="enable-background:new 0 0 82 76;" xml:space="preserve">
<style type="text/css">
	.st0{fill:#F6A219;}
</style>
<g>
	<path class="st0" d="M82,76H0V29h1l-0.6-0.8L10,21V0h62v21l9.6,7.2L81,29h1V76z M2,74h78V31L41,60.3L2,31V74z M12,36l29,21.8L70,36
		V2H12V36z M72,30v4.5l6-4.5H72z M4,30l6,4.5V30H4z M72,28h6l-6-4.5V28z M4,28h6v-4.5L4,28z M60,40H22v-2h38V40z M60,33H22v-2h38V33
		z M60,26H22v-2h38V26z M60,18H22v-2h38V18z"/>
</g>
</svg>
