<?xml version="1.0" encoding="utf-8"?>
<!-- Generator: Adobe Illustrator 19.2.1, SVG Export Plug-In . SVG Version: 6.00 Build 0)  -->
<svg version="1.1" id="Слой_1" xmlns="http://www.w3.org/2000/svg" xmlns:xlink="http://www.w3.org/1999/xlink" x="0px" y="0px"
	 viewBox="0 0 30 42" style="enable-background:new 0 0 30 42;" xml:space="preserve">
<style type="text/css">
	.st0{fill:#F6A219;}
	.st1{fill:#FFFFFF;}
</style>
<g>
	<path class="st0" d="M15,1C6.9,1,1,7,1,15.3c0,6.1,8.2,18.5,13.1,25.3c0.4,0.6,1.3,0.6,1.7,0c4.4-6.1,13.1-19,13.1-25.3
		C29,7,23.1,1,15,1z"/>
	<path class="st1" d="M15,42c-0.7,0-1.3-0.3-1.7-0.8C10.2,36.9,0,22.4,0,15.3C0,6.4,6.3,0,15,0c8.7,0,15,6.4,15,15.3
		c0,7.1-10.2,21.6-13.3,25.9C16.3,41.7,15.7,42,15,42L15,42z M15,2C7.5,2,2,7.6,2,15.3C2,20.5,8.7,31.4,15,40
		c6.4-8.6,13-19.5,13-24.7C28,7.6,22.5,2,15,2z"/>
	<circle class="st1" cx="15" cy="15" r="6"/>
</g>
</svg>
