<?xml version="1.0" encoding="utf-8"?>
<!-- Generator: Adobe Illustrator 19.2.1, SVG Export Plug-In . SVG Version: 6.00 Build 0)  -->
<svg version="1.1" id="Слой_1" xmlns="http://www.w3.org/2000/svg" xmlns:xlink="http://www.w3.org/1999/xlink" x="0px" y="0px"
	 viewBox="0 0 104 78" style="enable-background:new 0 0 104 78;" xml:space="preserve">
<style type="text/css">
	.st0{fill:#F6A219;}
</style>
<g>
	<path class="st0" d="M76.6,78c-1,0-1.9-0.5-2.4-1.2c-2.4-3.3-4.8-6.8-7.1-10.2l1.7-1.1c2.3,3.4,4.7,6.9,7.1,10.1
		c0.4,0.5,1.2,0.5,1.6,0C89.3,59.2,102,38.2,102,28.2c0-8.3-3.1-15.5-8.9-20.3C87.5,3,79.9,1.1,72,2.4l-0.3-2
		C80.2-1,88.3,1.1,94.4,6.3c6.2,5.2,9.6,13,9.6,21.9c0,13.2-19.1,40.5-25,48.6C78.4,77.6,77.5,78,76.6,78z M27.4,78
		c-1,0-1.9-0.4-2.4-1.2C19.1,68.7,0,41.4,0,28.2C0,11.9,11.5,0,27.4,0c15.9,0,27.4,11.8,27.4,28.2c0,13.2-19.1,40.5-25,48.6
		C29.3,77.5,28.4,78,27.4,78C27.4,78,27.4,78,27.4,78z M27.4,2C12.7,2,2,13,2,28.2c0,10,12.7,31.1,24.6,47.4c0.4,0.5,1.2,0.5,1.6,0
		c11.9-16.4,24.6-37.4,24.6-47.4C52.8,13,42.2,2,27.4,2z M52,78c-1,0-1.9-0.5-2.4-1.2c-2.4-3.3-4.8-6.8-7.1-10.2l1.7-1.1
		c2.3,3.4,4.7,6.9,7.1,10.1c0.4,0.5,1.2,0.5,1.6,0c11.9-16.4,24.6-37.4,24.6-47.4c0-8.3-3.1-15.5-8.9-20.3C62.9,3,55.4,1.1,47.4,2.4
		l-0.3-2C55.6-1,63.7,1.1,69.9,6.3c6.2,5.2,9.6,13,9.6,21.9c0,13.2-19.1,40.5-25,48.6C53.9,77.5,53,78,52,78z M27.4,40.9
		c-7.6,0-13.8-6.2-13.8-13.8c0-7.6,6.2-13.8,13.8-13.8c7.6,0,13.8,6.2,13.8,13.8C41.2,34.7,35,40.9,27.4,40.9z M27.4,15.2
		c-6.5,0-11.8,5.3-11.8,11.8c0,6.5,5.3,11.8,11.8,11.8s11.8-5.3,11.8-11.8C39.2,20.5,33.9,15.2,27.4,15.2z"/>
</g>
</svg>
