<?xml version="1.0" encoding="utf-8"?>
<!-- Generator: Adobe Illustrator 19.2.1, SVG Export Plug-In . SVG Version: 6.00 Build 0)  -->
<svg version="1.1" id="Слой_1" xmlns="http://www.w3.org/2000/svg" xmlns:xlink="http://www.w3.org/1999/xlink" x="0px" y="0px"
	 viewBox="0 0 226 96" style="enable-background:new 0 0 226 96;" xml:space="preserve">
<style type="text/css">
	.st0{fill:#F6A219;}
</style>
<g>
	<path class="st0" d="M115,65c-9.4,0-17-7.6-17-17c0-9.4,7.6-17,17-17s17,7.6,17,17C132,57.4,124.4,65,115,65z M115,33
		c-8.3,0-15,6.7-15,15s6.7,15,15,15c8.3,0,15-6.7,15-15S123.3,33,115,33z"/>
	<path class="st0" d="M115,49c-3.3,0-6-2.7-6-6s2.7-6,6-6s6,2.7,6,6S118.3,49,115,49z M115,39c-2.2,0-4,1.8-4,4s1.8,4,4,4
		c2.2,0,4-1.8,4-4S117.2,39,115,39z"/>
	<path class="st0" d="M123,57h-2v-3c0-1.1-0.9-2-1.9-2h-8.2c-1,0-1.9,0.9-1.9,2v3h-2v-3c0-2.2,1.8-4,3.9-4h8.2c2.1,0,3.9,1.8,3.9,4
		V57z"/>
	<path class="st0" d="M115.7,94.7L115,94l-0.7,0.7l-8-8l1.4-1.4l6.3,6.3V70h2v21.6l6.3-6.3l1.4,1.4L115.7,94.7z M116,26h-2V4.4
		l-6.3,6.3l-1.4-1.4l8-8L115,2l0.7-0.7l8,8l-1.4,1.4L116,4.4V26z"/>
	<path class="st0" d="M93.8,81.5H82.5v-1h-1V69.2h2v8.9l15.3-15.3l1.4,1.4L84.9,79.5h8.9V81.5z M131.3,33.2l-1.4-1.4l15.3-15.3h-8.9
		v-2h11.3v1h1v11.3h-2v-8.9L131.3,33.2z"/>
	<path class="st0" d="M153.7,56.7l-1.4-1.4l6.3-6.3H137v-2h21.6l-6.3-6.3l1.4-1.4l8,8L161,48l0.7,0.7L153.7,56.7z M76.3,56.7l-8-8
		L69,48l-0.7-0.7l8-8l1.4,1.4L71.4,47H93v2H71.4l6.3,6.3L76.3,56.7z"/>
	<path class="st0" d="M147.5,81.5h-11.3v-2h8.9l-15.3-15.3l1.4-1.4l15.3,15.3v-8.9h2v11.3h-1V81.5z M98.7,33.2L83.5,17.9v8.9h-2
		V15.5h1v-1h11.3v2h-8.9l15.3,15.3L98.7,33.2z"/>
</g>
</svg>
