<svg width="40" height="40" viewBox="0 0 40 40" fill="none" xmlns="http://www.w3.org/2000/svg">
<path d="M20 2L20.3257 1.05454L20 0.942314L19.6743 1.05454L20 2ZM34.9272 7.14285H35.9272V6.42969L35.253 6.19739L34.9272 7.14285ZM5.07279 7.14285L4.74705 6.19739L4.07279 6.42969V7.14285H5.07279ZM5.06103 7.57505L4.06154 7.54309L5.06103 7.57505ZM8.18336 28.9932L9.02448 28.4524L9.01241 28.4336L8.99951 28.4154L8.18336 28.9932ZM31.8166 28.9932L31.0005 28.4154L30.9876 28.4336L30.9755 28.4524L31.8166 28.9932ZM34.939 7.57505L35.9385 7.54309V7.54309L34.939 7.57505ZM19.6743 2.94546L34.6015 8.08831L35.253 6.19739L20.3257 1.05454L19.6743 2.94546ZM5.39852 8.08831L20.3257 2.94546L19.6743 1.05454L4.74705 6.19739L5.39852 8.08831ZM6.06052 7.60701C6.06716 7.39936 6.07279 7.22829 6.07279 7.14285H4.07279C4.07279 7.18672 4.06897 7.31077 4.06154 7.54309L6.06052 7.60701ZM8.99951 28.4154C8.19941 27.2853 7.57987 25.6197 7.12103 23.6305C6.66604 21.658 6.38674 19.448 6.22092 17.2893C5.88934 12.9728 6.01756 8.95058 6.06052 7.60701L4.06154 7.54309C4.01829 8.8959 3.88633 13.0103 4.2268 17.4425C4.397 19.6582 4.68679 21.9756 5.1722 24.08C5.65377 26.1678 6.34597 28.1286 7.36721 29.5711L8.99951 28.4154ZM20 37C20.0085 37 19.8618 36.9849 19.4933 36.8294C19.1619 36.6897 18.7431 36.477 18.2545 36.1974C17.2799 35.6397 16.0904 34.8519 14.8747 33.9529C12.4048 32.1263 9.99803 29.9664 9.02448 28.4524L7.34224 29.5341C8.52979 31.3809 11.2021 33.7244 13.6855 35.561C14.9465 36.4935 16.2023 37.3273 17.2612 37.9332C17.7893 38.2355 18.2842 38.4901 18.7161 38.6722C19.1108 38.8387 19.5769 39 20 39V37ZM30.9755 28.4524C30.002 29.9664 27.5952 32.1263 25.1253 33.9529C23.9096 34.8519 22.7201 35.6397 21.7455 36.1974C21.2569 36.477 20.8381 36.6897 20.5067 36.8294C20.1382 36.9849 19.9915 37 20 37V39C20.4231 39 20.8892 38.8387 21.2839 38.6722C21.7158 38.4901 22.2107 38.2355 22.7388 37.9332C23.7977 37.3273 25.0535 36.4935 26.3145 35.561C28.7979 33.7244 31.4702 31.3809 32.6578 29.5341L30.9755 28.4524ZM33.9395 7.60701C33.9824 8.95058 34.1107 12.9728 33.7791 17.2893C33.6133 19.448 33.334 21.658 32.879 23.6305C32.4201 25.6197 31.8006 27.2853 31.0005 28.4154L32.6328 29.5711C33.654 28.1286 34.3462 26.1678 34.8278 24.0801C35.3132 21.9756 35.603 19.6582 35.7732 17.4425C36.1137 13.0103 35.9817 8.89591 35.9385 7.54309L33.9395 7.60701ZM33.9272 7.14285C33.9272 7.22829 33.9328 7.39936 33.9395 7.60701L35.9385 7.54309C35.931 7.31077 35.9272 7.18672 35.9272 7.14285H33.9272ZM28 18.5C28 22.9183 24.4183 26.5 20 26.5V28.5C25.5228 28.5 30 24.0228 30 18.5H28ZM20 10.5C24.4183 10.5 28 14.0817 28 18.5H30C30 12.9771 25.5228 8.49998 20 8.49998V10.5ZM12 18.5C12 14.0817 15.5817 10.5 20 10.5V8.49998C14.4772 8.49998 10 12.9771 10 18.5H12ZM20 26.5C15.5817 26.5 12 22.9183 12 18.5H10C10 24.0228 14.4772 28.5 20 28.5V26.5Z" fill="#F6A219"/>
<path d="M15.5 18.5L19.1 21.5L24.5 15.5" stroke="#F6A219" stroke-width="2"/>
</svg>
