<svg width="40" height="40" viewBox="0 0 40 40" fill="none" xmlns="http://www.w3.org/2000/svg">
<path d="M33.6273 20.4166V14.7934H31.6273V20.4166H33.6273ZM33.6273 14.7934C33.6273 13.4007 32.4671 12.3333 31.1133 12.3333V14.3333C31.4317 14.3333 31.6273 14.5732 31.6273 14.7934H33.6273ZM31.1133 12.3333H7.22463V14.3333H31.1133V12.3333ZM7.22463 12.3333C5.8706 12.3333 4.71063 13.4009 4.71063 14.7934H6.71063C6.71063 14.5732 6.90625 14.3333 7.22463 14.3333V12.3333ZM4.71063 14.7934V34.5399H6.71063V14.7934H4.71063ZM4.71063 34.5399C4.71063 35.9325 5.87065 37 7.22463 37V35C6.90619 35 6.71063 34.7602 6.71063 34.5399H4.71063ZM7.22463 37H31.1133V35H7.22463V37ZM31.1133 37C32.4673 37 33.6273 35.9324 33.6273 34.5399H31.6273C31.6273 34.7601 31.4317 35 31.1133 35V37ZM33.6273 34.5399V28.9166H31.6273V34.5399H33.6273ZM33.6273 28.9166V20.4166H31.6273V28.9166H33.6273Z" fill="#F6A219"/>
<path d="M24 10C26.2091 10 28 8.20914 28 6C28 3.79086 26.2091 2 24 2C21.7909 2 20 3.79086 20 6C20 8.20914 21.7909 10 24 10Z" stroke="#F6A219" stroke-width="2"/>
<path d="M10.0323 12C10.0118 11.8541 10 11.7058 10 11.555C10 9.59158 11.7908 8 14 8C16.2092 8 18 9.59163 18 11.555C18 11.7058 17.9882 11.8542 17.9677 12" stroke="#F6A219" stroke-width="2"/>
<path d="M33 22H22.2087C21.5411 22 21 22.4207 21 22.9397V26.0603C21 26.5793 21.5411 27 22.2087 27H33" stroke="#F6A219" stroke-width="2"/>
</svg>
