<?xml version="1.0" encoding="utf-8"?>
<!-- Generator: Adobe Illustrator 21.1.0, SVG Export Plug-In . SVG Version: 6.00 Build 0)  -->
<svg version="1.1" id="Слой_1" xmlns="http://www.w3.org/2000/svg" xmlns:xlink="http://www.w3.org/1999/xlink" x="0px" y="0px"
	 viewBox="0 0 40 40" style="enable-background:new 0 0 40 40;" xml:space="preserve">
<style type="text/css">
	.st0{fill:#F6A219;}
	.st1{fill:none;stroke:#F6A219;stroke-width:2;}
</style>
<g>
	<g>
		<path class="st0" d="M33.6,7v1V7z M17.7,7V6V7z M14.3,11.2v1h1v-1H14.3z M7.7,12.9l-0.9-0.5l0,0L7.7,12.9z M3,21.1l-0.9-0.5
			L2,20.9v0.3H3z M3,29.7h1H3z M10.8,37.7c2.5,0,4.5-2,4.5-4.5h-2c0,1.4-1.1,2.5-2.5,2.5V37.7z M6.3,33.1c0,2.5,2,4.5,4.5,4.5v-2
			c-1.4,0-2.5-1.1-2.5-2.5H6.3z M10.8,28.6c-2.5,0-4.5,2-4.5,4.5h2c0-1.4,1.1-2.5,2.5-2.5V28.6z M15.3,33.1c0-2.5-2-4.5-4.5-4.5v2
			c1.4,0,2.5,1.1,2.5,2.5H15.3z M33.1,33.1c0,1.4-1.1,2.5-2.5,2.5v2c2.5,0,4.5-2,4.5-4.5H33.1z M30.6,30.6c1.4,0,2.5,1.1,2.5,2.5h2
			c0-2.5-2-4.5-4.5-4.5V30.6z M28.1,33.1c0-1.4,1.1-2.5,2.5-2.5v-2c-2.5,0-4.5,2-4.5,4.5H28.1z M30.6,35.7c-1.4,0-2.5-1.1-2.5-2.5
			h-2c0,2.5,2,4.5,4.5,4.5V35.7z M6.4,34H7v-2H6.4V34z M14.3,34H27v-2H14.3V34z M38,30.1V10.3h-2v19.7H38z M33.6,6L17.7,6v2l15.9,0
			V6z M13.3,10.3v0.9h2v-0.9H13.3z M14.3,10.2h-3.7v2h3.7V10.2z M6.9,12.4l-4.7,8.2l1.7,1l4.7-8.2L6.9,12.4z M2,21.1l0,8.6h2l0-8.6
			H2z M10.6,10.2c-1.6,0-3,0.8-3.8,2.2l1.7,1c0.4-0.7,1.2-1.2,2-1.2V10.2z M17.7,6c-2.4,0-4.3,1.9-4.3,4.3h2c0-1.3,1-2.3,2.3-2.3V6z
			 M38,10.3C38,7.9,36,6,33.6,6v2c1.3,0,2.3,1,2.3,2.3H38z M34.2,34c2.1-0.1,3.8-1.8,3.8-3.9h-2c0,1.1-0.8,1.9-1.9,2L34.2,34z
			 M6.4,32C5.1,32,4,31,4,29.7H2C2,32.1,4,34,6.4,34V32z"/>
	</g>
</g>
<path class="st1" d="M7,14.1h7.3v7.1H3"/>
</svg>
