<svg width="40" height="40" viewBox="0 0 40 40" fill="none" xmlns="http://www.w3.org/2000/svg">
<path d="M33.6889 16.3321L32.711 16.1229L32.6041 16.6227L32.9466 17.0022L33.6889 16.3321ZM37 20L37.7423 20.6701L38.3472 20L37.7423 19.3299L37 20ZM34.7225 11.5L35.7004 11.7092L35.8892 10.8264L35.0303 10.5485L34.7225 11.5ZM30.021 9.97904L29.0695 10.2868L29.2268 10.7732L29.7132 10.9305L30.021 9.97904ZM28.4999 5.27757L29.4514 4.96976L29.1735 4.11087L28.2908 4.29969L28.4999 5.27757ZM23.6679 6.31114L22.9979 7.05343L23.3773 7.39594L23.8771 7.28902L23.6679 6.31114ZM20 3L20.67 2.25771L20 1.65281L19.3299 2.25772L20 3ZM16.3321 6.31114L16.1229 7.28902L16.6227 7.39594L17.0022 7.05342L16.3321 6.31114ZM11.5 5.27757L11.7091 4.29969L10.8264 4.11087L10.5485 4.96978L11.5 5.27757ZM9.97911 9.97904L10.2869 10.9305L10.7732 10.7732L10.9306 10.2868L9.97911 9.97904ZM5.27764 11.4999L4.96985 10.5485L4.11094 10.8263L4.29976 11.7091L5.27764 11.4999ZM6.31121 16.332L7.05349 17.0021L7.396 16.6227L7.28909 16.1228L6.31121 16.332ZM3 20L2.25772 19.3299L1.65281 20L2.25772 20.67L3 20ZM6.31114 23.6679L7.28902 23.877L7.39594 23.3772L7.05343 22.9978L6.31114 23.6679ZM5.27757 28.4999L4.29969 28.2907L4.11087 29.1735L4.96976 29.4513L5.27757 28.4999ZM9.97904 30.0209L10.9305 29.7131L10.7732 29.2268L10.2869 29.0694L9.97904 30.0209ZM11.5 34.7224L10.5485 35.0302L10.8264 35.8891L11.7092 35.7003L11.5 34.7224ZM16.3321 33.6888L17.0022 32.9465L16.6227 32.604L16.1229 32.7109L16.3321 33.6888ZM20 36.9999L19.3299 37.7422L20 38.3471L20.6701 37.7422L20 36.9999ZM23.6679 33.6888L23.877 32.7109L23.3772 32.604L22.9978 32.9465L23.6679 33.6888ZM28.4999 34.7224L28.2907 35.7003L29.1735 35.8891L29.4513 35.0302L28.4999 34.7224ZM30.0209 30.0209L29.7131 29.0694L29.2268 29.2268L29.0694 29.7131L30.0209 30.0209ZM34.7224 28.4999L35.0302 29.4513L35.8891 29.1735L35.7003 28.2907L34.7224 28.4999ZM33.6888 23.6679L32.9465 22.9978L32.604 23.3772L32.7109 23.877L33.6888 23.6679ZM32.9466 17.0022L36.2577 20.67L37.7423 19.3299L34.4311 15.662L32.9466 17.0022ZM33.7446 11.2908L32.711 16.1229L34.6667 16.5412L35.7004 11.7092L33.7446 11.2908ZM29.7132 10.9305L34.4147 12.4514L35.0303 10.5485L30.3288 9.02759L29.7132 10.9305ZM27.5485 5.58538L29.0695 10.2868L30.9724 9.67123L29.4514 4.96976L27.5485 5.58538ZM23.8771 7.28902L28.7091 6.25545L28.2908 4.29969L23.4588 5.33326L23.8771 7.28902ZM19.3299 3.74229L22.9979 7.05343L24.338 5.56885L20.67 2.25771L19.3299 3.74229ZM17.0022 7.05342L20.6701 3.74228L19.3299 2.25772L15.662 5.56886L17.0022 7.05342ZM11.2908 6.25545L16.1229 7.28902L16.5412 5.33326L11.7091 4.29969L11.2908 6.25545ZM10.9306 10.2868L12.4514 5.58536L10.5485 4.96978L9.02765 9.67125L10.9306 10.2868ZM5.58542 12.4514L10.2869 10.9305L9.67132 9.02758L4.96985 10.5485L5.58542 12.4514ZM7.28909 16.1228L6.25552 11.2907L4.29976 11.7091L5.33333 16.5412L7.28909 16.1228ZM3.74228 20.67L7.05349 17.0021L5.56893 15.6619L2.25772 19.3299L3.74228 20.67ZM7.05343 22.9978L3.74228 19.3299L2.25772 20.67L5.56886 24.3379L7.05343 22.9978ZM6.25545 28.709L7.28902 23.877L5.33326 23.4587L4.29969 28.2907L6.25545 28.709ZM10.2869 29.0694L5.58538 27.5484L4.96976 29.4513L9.67123 30.9723L10.2869 29.0694ZM12.4514 34.4146L10.9305 29.7131L9.02759 30.3287L10.5485 35.0302L12.4514 34.4146ZM16.1229 32.7109L11.2908 33.7445L11.7092 35.7003L16.5412 34.6667L16.1229 32.7109ZM20.6701 36.2576L17.0022 32.9465L15.662 34.4311L19.3299 37.7422L20.6701 36.2576ZM22.9978 32.9465L19.3299 36.2576L20.6701 37.7422L24.338 34.4311L22.9978 32.9465ZM28.7091 33.7445L23.877 32.7109L23.4587 34.6667L28.2907 35.7003L28.7091 33.7445ZM29.0694 29.7131L27.5484 34.4146L29.4513 35.0302L30.9723 30.3287L29.0694 29.7131ZM34.4146 27.5484L29.7131 29.0694L30.3287 30.9723L35.0302 29.4513L34.4146 27.5484ZM32.7109 23.877L33.7445 28.7091L35.7003 28.2907L34.6667 23.4587L32.7109 23.877ZM36.2577 19.3299L32.9465 22.9978L34.4311 24.338L37.7423 20.6701L36.2577 19.3299ZM15.75 19.5833C17.8671 19.5833 19.5834 17.8671 19.5834 15.75H17.5834C17.5834 16.7625 16.7625 17.5833 15.75 17.5833V19.5833ZM11.9167 15.75C11.9167 17.8671 13.6329 19.5833 15.75 19.5833V17.5833C14.7375 17.5833 13.9167 16.7625 13.9167 15.75H11.9167ZM15.75 11.9167C13.6329 11.9167 11.9167 13.6329 11.9167 15.75H13.9167C13.9167 14.7375 14.7375 13.9167 15.75 13.9167V11.9167ZM19.5834 15.75C19.5834 13.6329 17.8671 11.9167 15.75 11.9167V13.9167C16.7625 13.9167 17.5834 14.7375 17.5834 15.75H19.5834ZM26.0833 24.25C26.0833 25.2625 25.2625 26.0833 24.25 26.0833V28.0833C26.3671 28.0833 28.0833 26.3671 28.0833 24.25H26.0833ZM24.25 22.4167C25.2625 22.4167 26.0833 23.2375 26.0833 24.25H28.0833C28.0833 22.1329 26.3671 20.4167 24.25 20.4167V22.4167ZM22.4167 24.25C22.4167 23.2375 23.2375 22.4167 24.25 22.4167V20.4167C22.1329 20.4167 20.4167 22.1329 20.4167 24.25H22.4167ZM24.25 26.0833C23.2375 26.0833 22.4167 25.2625 22.4167 24.25H20.4167C20.4167 26.3671 22.1329 28.0833 24.25 28.0833V26.0833Z" fill="#F6A219"/>
<path d="M25.6666 14.3333L14.3333 25.6666" stroke="#F6A219" stroke-width="1.66667"/>
</svg>
