<svg width="96" height="83" viewBox="0 0 96 83" fill="none" xmlns="http://www.w3.org/2000/svg">
<path fill-rule="evenodd" clip-rule="evenodd" d="M65.6408 43.4796C68.489 43.3897 71.3357 43.3636 74.1809 43.4013C76.7678 43.439 79.3561 43.5361 81.9459 43.6926C84.659 43.8433 87.3677 44.0534 90.072 44.323C90.6327 44.3788 91.2115 44.4175 91.7957 44.4567C93.0332 44.5396 94.2947 44.6241 95.4586 44.8751C96.4981 45.0795 95.8462 45.7446 95.1239 45.7446C93.5947 45.767 92.0618 45.6635 90.5312 45.5602C89.6812 45.5029 88.8319 45.4456 87.9844 45.4099C76.9449 44.8948 65.8814 45.2467 54.8985 46.462C50.0464 47.0034 45.228 47.8075 40.4652 48.8705C35.3938 50.0171 30.408 51.506 25.5431 53.3267C23.1119 54.2338 20.7144 55.2251 18.3507 56.3003C18.0975 56.4141 17.8421 56.5265 17.586 56.6391C16.6484 57.0516 15.7025 57.4678 14.8272 57.9698C14.7384 58.0207 14.6492 58.0728 14.5595 58.1251C13.6615 58.6494 12.7136 59.2029 11.6164 58.9262C10.6122 58.6697 9.99996 57.5742 9.99996 56.5481C9.99996 53.9955 11.8863 51.9797 13.6107 50.1369C13.9627 49.7608 14.3079 49.3918 14.629 49.027C16.796 46.5605 19.0319 44.1679 21.3369 41.8493C28.5117 34.5802 36.2722 27.6808 45.0546 22.3681C45.1041 22.3381 45.1596 22.3054 45.2193 22.2703C45.6433 22.0208 46.2755 21.6489 46.4068 21.2334C46.6578 20.4552 45.7417 20.4944 45.1647 20.6204C39.3597 21.9073 33.841 23.455 28.428 25.9157C27.4747 26.3512 26.5275 26.8524 25.5771 27.3553C24.108 28.1327 22.6313 28.9142 21.1123 29.4632C18.1173 30.5458 14.4924 29.9936 13.0038 26.9243C11.9159 24.6549 12.0568 21.6377 12.7439 19.2684C13.1227 17.8946 14.0036 16.4816 15.3249 15.8164C16.1016 15.4688 16.9179 15.2149 17.7561 15.06L21.6848 14.1905C32.3119 11.7489 43.2187 10.7008 54.1233 11.0733C54.3062 11.0804 54.4942 11.087 54.6863 11.0938C58.3736 11.2233 63.5652 11.4056 63.5443 16.199V16.486C63.34 19.9373 59.5883 22.1448 56.7339 23.8243C56.4494 23.9917 56.1738 24.1538 55.9115 24.3115C53.8859 25.5176 51.8148 26.6429 49.7428 27.7687C47.0797 29.2158 44.4151 30.6636 41.8438 32.2848C33.2456 37.7445 25.3701 44.2404 18.3992 51.6224C18.3545 51.6586 18.3248 51.7096 18.3155 51.7659C18.3155 51.8876 18.4784 51.9268 18.5974 51.9268C19.3863 51.9148 20.0331 51.616 20.6976 51.309C20.9976 51.1704 21.3012 51.0301 21.6232 50.9138C22.8872 50.4486 24.1645 50.0139 25.4462 49.6095C28.0125 48.7835 30.6052 48.0589 33.2244 47.4358C43.7861 44.9316 54.8016 43.8274 65.6408 43.4796ZM22.2104 77.7829C22.2069 76.7598 22.5071 75.7586 23.0729 74.9062C23.6387 74.0537 24.4447 73.3883 25.3888 72.9941C26.333 72.6 27.3729 72.4948 28.3769 72.6919C29.3808 72.8891 30.3037 73.3797 31.0287 74.1016C31.7538 74.8235 32.2483 75.7443 32.4497 76.7474C32.6511 77.7505 32.5504 78.7909 32.1603 79.7367C31.7702 80.6826 31.1082 81.4914 30.2581 82.0608C29.4081 82.6302 28.4082 82.9347 27.3851 82.9355C26.0158 82.9379 24.7016 82.3965 23.7312 81.4303C22.7609 80.4641 22.2139 79.1522 22.2104 77.7829ZM22.9729 77.7829C22.9729 78.6547 23.2315 79.5069 23.7158 80.2317C24.2001 80.9566 24.8885 81.5215 25.6939 81.8551C26.4993 82.1887 27.3856 82.276 28.2406 82.1059C29.0956 81.9359 29.881 81.5161 30.4974 80.8997C31.1138 80.2832 31.5336 79.4978 31.7037 78.6428C31.8738 77.7878 31.7865 76.9016 31.4529 76.0962C31.1193 75.2908 30.5543 74.6024 29.8295 74.118C29.1046 73.6337 28.2524 73.3752 27.3807 73.3752C26.2117 73.3752 25.0905 73.8396 24.2639 74.6662C23.4373 75.4928 22.9729 76.6139 22.9729 77.7829ZM6.30842 78.2403C6.3514 78.2833 6.4097 78.3074 6.47049 78.3074L9.68812 78.3163C9.71144 78.3157 9.73464 78.3198 9.7563 78.3285C9.77797 78.3371 9.79764 78.3501 9.81414 78.3666C9.83063 78.383 9.8436 78.4027 9.85224 78.4244C9.86089 78.4461 9.86503 78.4693 9.86443 78.4926V79.903C9.86172 80.0145 9.83144 80.1235 9.77627 80.2204C9.26356 80.9962 8.5186 81.59 7.64796 81.9169C6.77732 82.2437 5.82563 82.2867 4.92903 82.0399C4.03244 81.7931 3.23688 81.269 2.65619 80.5426C2.07551 79.8162 1.73943 78.9248 1.69606 77.9958C1.65269 77.0669 1.90424 76.1481 2.41472 75.3707C2.92521 74.5934 3.66847 73.9975 4.53816 73.6682C5.40786 73.3389 6.35942 73.2931 7.25672 73.5373C8.15402 73.7816 8.95108 74.3034 9.53385 75.0281C9.57283 75.0766 9.62926 75.108 9.69105 75.1154C9.75284 75.1228 9.81508 75.1057 9.86443 75.0678L10.1069 74.9047C10.1312 74.8884 10.1519 74.8673 10.1679 74.8428C10.1838 74.8182 10.1945 74.7906 10.1995 74.7618C10.2044 74.7329 10.2035 74.7034 10.1966 74.6749C10.1898 74.6464 10.1772 74.6196 10.1597 74.5962C9.61452 73.9157 8.90554 73.3848 8.0992 73.0531C7.29286 72.7214 6.41553 72.5997 5.54934 72.6994C4.68315 72.7992 3.85645 73.1171 3.14662 73.6234C2.43679 74.1298 1.86706 74.808 1.49076 75.5945C1.11447 76.381 0.943921 77.2502 0.995087 78.1206C1.04625 78.991 1.31746 79.8342 1.78331 80.5712C2.24917 81.3082 2.89443 81.915 3.6587 82.3347C4.42296 82.7544 5.28122 82.9732 6.15313 82.9708C6.86225 82.9805 7.56404 82.8264 8.2039 82.5206C8.84377 82.2148 9.40447 81.7655 9.84239 81.2077C9.84729 81.1959 9.85628 81.1863 9.86771 81.1806C9.87914 81.175 9.89224 81.1736 9.90458 81.1768C9.91693 81.1801 9.9277 81.1876 9.9349 81.1982C9.9421 81.2087 9.94525 81.2215 9.94377 81.2342V81.5427V82.5168C9.94376 82.5769 9.9673 82.6345 10.0093 82.6773C10.0514 82.7202 10.1085 82.7449 10.1686 82.746H10.3493C10.4101 82.746 10.4684 82.7219 10.5113 82.6789C10.5543 82.6359 10.5785 82.5776 10.5785 82.5168V77.8711C10.5785 77.8103 10.5543 77.752 10.5113 77.709C10.4684 77.666 10.4101 77.6419 10.3493 77.6419H6.47049C6.4097 77.6419 6.3514 77.666 6.30842 77.709C6.26544 77.752 6.24129 77.8103 6.24129 77.8711V78.0782C6.24129 78.139 6.26544 78.1973 6.30842 78.2403ZM12.9684 72.8914C12.9255 72.9343 12.9013 72.9927 12.9013 73.0534V82.4992C12.9013 82.5293 12.9072 82.5591 12.9188 82.5869C12.9303 82.6147 12.9472 82.64 12.9684 82.6612C12.9897 82.6825 13.015 82.6994 13.0428 82.7109C13.0706 82.7224 13.1004 82.7284 13.1305 82.7284H13.4258C13.4863 82.7272 13.5439 82.7027 13.5866 82.66C13.6294 82.6172 13.6539 82.5596 13.655 82.4992V79.4138C13.6544 79.3902 13.6586 79.3668 13.6672 79.3449C13.6758 79.323 13.6886 79.3031 13.7051 79.2862C13.7215 79.2694 13.7411 79.256 13.7628 79.2469C13.7845 79.2377 13.8078 79.233 13.8313 79.233H17.4545C17.4978 79.2321 17.5408 79.2407 17.5804 79.2582C17.62 79.2757 17.6552 79.3018 17.6837 79.3344L19.9757 82.5521C20.0153 82.6107 20.0684 82.6589 20.1305 82.6926C20.1927 82.7264 20.262 82.7447 20.3327 82.746H20.7735C20.796 82.746 20.8182 82.7399 20.8375 82.7282C20.8568 82.7165 20.8725 82.6998 20.8829 82.6798C20.8934 82.6598 20.8982 82.6373 20.8967 82.6148C20.8953 82.5923 20.8877 82.5706 20.8749 82.5521L18.4991 79.233C18.4878 79.2162 18.4803 79.1971 18.4773 79.177C18.4743 79.1569 18.4758 79.1364 18.4818 79.117C18.4877 79.0976 18.4978 79.0797 18.5115 79.0647C18.5252 79.0497 18.542 79.038 18.5608 79.0303C19.1855 78.816 19.7257 78.4081 20.103 77.866C20.4802 77.3239 20.675 76.6757 20.6589 76.0154C20.6589 74.3008 19.4291 72.8242 17.2782 72.8242H13.1305C13.0697 72.8242 13.0114 72.8484 12.9684 72.8914ZM13.8313 73.5383H17.2517C18.9839 73.5383 19.9228 74.7063 19.9228 76.0286C19.9228 77.351 18.9839 78.5234 17.2517 78.5234H13.8313C13.8078 78.5234 13.7845 78.5187 13.7628 78.5096C13.7411 78.5004 13.7215 78.4871 13.7051 78.4702C13.6886 78.4534 13.6758 78.4334 13.6672 78.4115C13.6586 78.3896 13.6544 78.3662 13.655 78.3427V73.7146C13.6544 73.6913 13.6586 73.6681 13.6672 73.6464C13.6759 73.6247 13.6888 73.6051 13.7053 73.5886C13.7218 73.5721 13.7415 73.5591 13.7632 73.5505C13.7848 73.5418 13.808 73.5377 13.8313 73.5383ZM42.1784 72.8914C42.1354 72.9343 42.1112 72.9927 42.1112 73.0534V78.9686C42.1112 80.8375 40.9167 82.195 38.7041 82.195C36.4914 82.195 35.2969 80.8375 35.2969 78.9686V73.0534C35.2969 72.9927 35.2728 72.9343 35.2298 72.8914C35.1868 72.8484 35.1285 72.8242 35.0677 72.8242H34.7724C34.7116 72.8242 34.6533 72.8484 34.6103 72.8914C34.5673 72.9343 34.5432 72.9927 34.5432 73.0534V78.9906C34.5432 81.2165 35.9933 82.9355 38.7041 82.9355C41.4148 82.9355 42.865 81.1945 42.865 78.9906V73.0534C42.865 72.9927 42.8408 72.9343 42.7978 72.8914C42.7548 72.8484 42.6965 72.8242 42.6358 72.8242H42.3404C42.2797 72.8242 42.2214 72.8484 42.1784 72.8914ZM45.8005 82.746C45.7397 82.746 45.6814 82.7219 45.6384 82.6789C45.5954 82.6359 45.5713 82.5776 45.5713 82.5168V73.0534C45.5713 72.9927 45.5954 72.9343 45.6384 72.8914C45.6814 72.8484 45.7397 72.8242 45.8005 72.8242H49.3972C51.7112 72.8242 53.0336 74.4022 53.0336 76.2446C53.0336 78.087 51.7112 79.6518 49.3972 79.6518H46.4969C46.4734 79.6518 46.4501 79.6565 46.4284 79.6656C46.4067 79.6748 46.3871 79.6881 46.3707 79.705C46.3542 79.7218 46.3413 79.7418 46.3327 79.7637C46.3242 79.7856 46.32 79.809 46.3206 79.8325V82.5168C46.3206 82.5776 46.2965 82.6359 46.2535 82.6789C46.2105 82.7219 46.1522 82.746 46.0914 82.746H45.8005ZM49.3663 73.5383H46.4969C46.4736 73.5377 46.4504 73.5418 46.4287 73.5505C46.4071 73.5591 46.3874 73.5721 46.3709 73.5886C46.3544 73.6051 46.3414 73.6247 46.3328 73.6464C46.3242 73.6681 46.32 73.6913 46.3206 73.7146V78.7614C46.3194 78.7851 46.3231 78.8088 46.3314 78.831C46.3398 78.8532 46.3527 78.8734 46.3692 78.8903C46.3858 78.9073 46.4057 78.9207 46.4277 78.9296C46.4496 78.9385 46.4732 78.9428 46.4969 78.9421H49.3663C51.2132 78.9421 52.2666 77.6419 52.2666 76.2446C52.2666 74.8474 51.2176 73.5383 49.3663 73.5383Z" fill="#545365"/>
<path fill-rule="evenodd" clip-rule="evenodd" d="M0 66H3V3H76V39H79V0H0V66ZM37.5945 60.1673C37.0185 61.0665 36.7234 62.117 36.7471 63.1846C36.7726 64.5899 37.35 65.9288 38.3545 66.9119C39.3591 67.895 40.7101 68.4434 42.1157 68.4386C43.1836 68.4392 44.2274 68.1216 45.114 67.5263C46.0005 66.931 46.6896 66.085 47.0932 65.0963C47.4968 64.1077 47.5967 63.0212 47.3801 61.9755C47.1634 60.9298 46.6401 59.9724 45.8769 59.2255C45.1137 58.4786 44.1452 57.976 43.0951 57.782C42.045 57.588 40.9609 57.7112 39.9812 58.1361C39.0014 58.5609 38.1705 59.2681 37.5945 60.1673ZM39.5723 64.2385C39.4345 63.9043 39.3641 63.5461 39.3653 63.1846C39.3647 62.8232 39.4354 62.4653 39.5735 62.1313C39.7115 61.7974 39.9141 61.494 40.1696 61.2384C40.4251 60.9829 40.7285 60.7803 41.0625 60.6423C41.3964 60.5043 41.7543 60.4336 42.1157 60.4342C42.8451 60.4342 43.5447 60.7239 44.0605 61.2397C44.5763 61.7555 44.8661 62.4551 44.8661 63.1846C44.8661 63.914 44.5763 64.6136 44.0605 65.1294C43.5447 65.6452 42.8451 65.935 42.1157 65.935C41.7542 65.9361 41.396 65.8658 41.0618 65.728C40.7276 65.5902 40.4239 65.3876 40.1683 65.132C39.9126 64.8764 39.7101 64.5727 39.5723 64.2385ZM27.8086 60.5528C27.867 60.6112 27.946 60.6446 28.0286 60.6457L32.0088 60.6325C32.0313 60.6325 32.0533 60.6388 32.0723 60.6508C32.0913 60.6628 32.1066 60.68 32.1163 60.7003C32.126 60.7205 32.1297 60.7432 32.1271 60.7655C32.1244 60.7878 32.1155 60.809 32.1013 60.8264L27.7685 66.1157C27.6416 66.2738 27.569 66.4685 27.5614 66.6711V67.9449C27.5625 68.0264 27.5954 68.1042 27.653 68.1618C27.7106 68.2194 27.7885 68.2523 27.8699 68.2534H35.8391C35.9205 68.2523 35.9984 68.2194 36.056 68.1618C36.1136 68.1042 36.1465 68.0264 36.1476 67.9449V66.0628C36.1465 65.9809 36.1138 65.9026 36.0563 65.8443C35.9988 65.786 35.9209 65.7521 35.8391 65.7499H31.6738C31.6513 65.7499 31.6293 65.7435 31.6102 65.7315C31.5912 65.7196 31.576 65.7024 31.5663 65.6821C31.5566 65.6618 31.5529 65.6392 31.5555 65.6169C31.5581 65.5945 31.5671 65.5734 31.5812 65.5559L35.9404 60.2667C36.0626 60.1069 36.1306 59.9124 36.1344 59.7113V58.4375C36.1333 58.356 36.1004 58.2782 36.0428 58.2206C35.9851 58.1629 35.9073 58.1301 35.8258 58.1289H28.0286C27.9464 58.1289 27.8674 58.1613 27.8089 58.219C27.7503 58.2768 27.7168 58.3552 27.7157 58.4375V60.3328C27.7168 60.4154 27.7501 60.4944 27.8086 60.5528ZM48.5686 58.4375C48.5697 58.356 48.6026 58.2782 48.6602 58.2206C48.7178 58.1629 48.7957 58.1301 48.8771 58.1289H53.5096C56.1058 58.1289 57.3003 59.8127 57.3003 61.8226C57.3349 62.4734 57.1885 63.1212 56.8773 63.6938C56.566 64.2665 56.1022 64.7417 55.5372 65.0667C55.5081 65.0823 55.4828 65.104 55.4628 65.1303C55.4429 65.1566 55.4289 65.1869 55.4218 65.2192C55.4147 65.2514 55.4146 65.2848 55.4216 65.317C55.4286 65.3493 55.4425 65.3797 55.4623 65.4061L57.3179 67.9846C57.3359 68.0089 57.3468 68.0378 57.3493 68.068C57.3518 68.0982 57.3459 68.1285 57.3321 68.1555C57.3184 68.1825 57.2975 68.2051 57.2716 68.2208C57.2457 68.2366 57.216 68.2448 57.1857 68.2446H54.7085C54.6117 68.2424 54.5168 68.2178 54.4311 68.1727C54.3455 68.1275 54.2714 68.0631 54.2149 67.9846L52.6325 65.741C52.5837 65.6773 52.521 65.6256 52.4492 65.5897C52.3774 65.5538 52.2984 65.5347 52.2182 65.5339H51.4116C51.3429 65.535 51.2775 65.5628 51.2289 65.6113C51.1804 65.6598 51.1526 65.7253 51.1515 65.7939V67.9361C51.1504 68.0176 51.1175 68.0954 51.0599 68.153C51.0023 68.2106 50.9244 68.2435 50.843 68.2446H48.8815C48.8001 68.2435 48.7222 68.2106 48.6646 68.153C48.607 68.0954 48.5741 68.0176 48.573 67.9361L48.5686 58.4375ZM53.3686 60.487H51.4072C51.3385 60.4882 51.2731 60.5159 51.2245 60.5645C51.176 60.613 51.1482 60.6785 51.1471 60.7471V62.951C51.1483 63.0192 51.1762 63.0842 51.2248 63.132C51.2735 63.1798 51.3389 63.2066 51.4072 63.2066H53.3686C54.4044 63.2066 54.7967 62.5719 54.7967 61.8843C54.7967 61.0733 54.4044 60.487 53.3686 60.487ZM63.2053 64.4036C63.2628 64.462 63.3407 64.4958 63.4225 64.4981L65.4369 64.5069C65.4701 64.509 65.5014 64.5231 65.5249 64.5466C65.5485 64.5702 65.5626 64.6015 65.5647 64.6347V64.6744C65.5586 64.7536 65.5312 64.8298 65.4854 64.8947C65.2427 65.22 64.9275 65.4842 64.5648 65.6663C64.2021 65.8484 63.8019 65.9434 63.3961 65.9438C62.6666 65.9438 61.9671 65.654 61.4513 65.1382C60.9355 64.6224 60.6457 63.9228 60.6457 63.1934C60.6457 62.4639 60.9355 61.7643 61.4513 61.2485C61.9671 60.7327 62.6666 60.443 63.3961 60.443C64.1309 60.4417 64.8362 60.7318 65.3575 61.2496C65.4175 61.3153 65.4994 61.3569 65.5878 61.3667C65.6762 61.3764 65.7652 61.3536 65.838 61.3025L67.4336 60.2226C67.4642 60.1988 67.49 60.1693 67.5092 60.1356C67.5285 60.102 67.5409 60.0648 67.5458 60.0264C67.5507 59.9879 67.548 59.9488 67.5378 59.9114C67.5277 59.874 67.5102 59.8389 67.4865 59.8083C66.9762 59.2244 66.3476 58.7558 65.6424 58.4336C64.9372 58.1114 64.1714 57.9429 63.3961 57.9394C62.0027 57.9394 60.6663 58.4929 59.681 59.4782C58.6957 60.4636 58.1421 61.7999 58.1421 63.1934C58.1421 64.5868 58.6957 65.9232 59.681 66.9085C60.6663 67.8938 62.0027 68.4474 63.3961 68.4474C63.8389 68.4651 64.2805 68.3917 64.6938 68.2317C65.107 68.0718 65.4829 67.8286 65.7983 67.5173C65.8096 67.5044 65.8244 67.495 65.8409 67.4903C65.8574 67.4856 65.875 67.4858 65.8913 67.491C65.9077 67.4961 65.9223 67.506 65.9331 67.5193C65.944 67.5326 65.9508 67.5487 65.9526 67.5658V67.9449C65.9548 68.0268 65.9887 68.1046 66.047 68.1621C66.1053 68.2196 66.1836 68.2523 66.2655 68.2534H67.6804C67.7619 68.2523 67.8397 68.2194 67.8973 68.1618C67.9549 68.1042 67.9878 68.0264 67.9889 67.9449V62.6556C67.9878 62.5737 67.9551 62.4954 67.8976 62.4371C67.8401 62.3788 67.7623 62.345 67.6804 62.3427H63.4225C63.3407 62.345 63.2628 62.3788 63.2053 62.4371C63.1478 62.4954 63.1151 62.5737 63.114 62.6556V64.1851C63.1151 64.267 63.1478 64.3453 63.2053 64.4036ZM68.822 63.1846C68.7984 62.1171 69.0933 61.0669 69.6691 60.1678C70.2449 59.2687 71.0756 58.5615 72.0551 58.1365C73.0345 57.7115 74.1184 57.588 75.1684 57.7817C76.2184 57.9754 77.1868 58.4775 77.9502 59.224C78.7136 59.9704 79.2373 60.9274 79.4544 61.9728C79.6716 63.0182 79.5723 64.1045 79.1694 65.0933C78.7665 66.082 78.0781 66.9283 77.1921 67.5241C76.3061 68.1199 75.2627 68.4383 74.195 68.4386C72.7887 68.4446 71.4365 67.8967 70.431 66.9135C69.4255 65.9302 68.8475 64.5907 68.822 63.1846ZM71.4667 63.1846C71.4667 63.7285 71.628 64.2603 71.9302 64.7126C72.2324 65.1649 72.6619 65.5174 73.1645 65.7256C73.6671 65.9338 74.2201 65.9883 74.7536 65.8821C75.2872 65.776 75.7772 65.5141 76.1619 65.1294C76.5465 64.7448 76.8085 64.2547 76.9146 63.7211C77.0208 63.1876 76.9663 62.6346 76.7581 62.132C76.5499 61.6295 76.1974 61.1999 75.7451 60.8977C75.2928 60.5955 74.761 60.4342 74.2171 60.4342C73.8537 60.4301 73.4931 60.4982 73.1564 60.6347C72.8196 60.7712 72.5133 60.9733 72.2553 61.2293C71.9974 61.4852 71.7928 61.7898 71.6537 62.1255C71.5145 62.4612 71.4434 62.8212 71.4446 63.1846H71.4667Z" fill="#545365"/>
</svg>
