<svg width="24" height="24" viewBox="0 0 24 24" fill="none" xmlns="http://www.w3.org/2000/svg">
<rect width="24" height="24" rx="12" fill="#F6A219"/>
<path d="M10.8041 13.1969C9.46642 11.8593 9.16438 10.5216 9.09624 9.98569C9.0772 9.8375 9.12819 9.68889 9.23421 9.58361L9.80405 9.09581C10.1979 8.75868 10.2688 8.17648 9.96733 7.7547L8.58846 5.82531C8.27857 5.39169 7.68306 5.27731 7.23458 5.56527L5.51873 6.66697C5.20069 6.87118 5.02092 7.23766 5.08206 7.61064C5.34214 9.19724 6.17066 12.0201 9.07521 14.9248C11.9869 17.8367 14.816 18.662 16.4008 18.9199C16.7677 18.9796 17.1292 18.8063 17.3354 18.497L18.4629 16.8057C18.7623 16.3566 18.6513 15.751 18.2121 15.4373L16.2459 14.0329C15.8239 13.7314 15.2414 13.8026 14.9045 14.1969L14.4175 14.7668C14.3122 14.8728 14.1636 14.9238 14.0154 14.9048C13.4794 14.8366 12.1418 14.5346 10.8041 13.1969Z" fill="white"/>
</svg>
